<svg xmlns="http://www.w3.org/2000/svg"  xmlns:xlink="http://www.w3.org/1999/xlink" width="60" height="60" x="0" y="0" viewBox="0 0 512 512" style="enable-background:new 0 0 512 512" xml:space="preserve" fill-rule="evenodd" class=""><g><path fill="#ff9e00" d="M505.41 435.95H15.14a5.986 5.986 0 0 1 0-11.97h490.27a5.986 5.986 0 0 1 0 11.97z" opacity="1" data-original="#cced00"></path><path fill="#ff9e00" d="M361.34 304.49H136.83a5.986 5.986 0 1 1 0-11.97h220.3l46.3-129.02c.12-.35.42-1.17-.6-2.61-1.69-2.41-5.5-4.29-8.68-4.29H120.4a5.986 5.986 0 1 1 0-11.97h273.75c7.11 0 14.53 3.76 18.48 9.36 2.96 4.21 3.69 9.02 2.07 13.55l-47.73 132.99a5.977 5.977 0 0 1-5.63 3.96zM71.93 118.84H6.59c-3.3 0-5.98-2.68-5.98-5.99V81.94c0-3.31 2.68-5.99 5.98-5.99h65.34c3.31 0 5.99 2.68 5.99 5.99v30.91c0 3.31-2.68 5.99-5.99 5.99zm-59.35-11.97h53.37V87.93H12.58z" opacity="1" data-original="#5a5a5a" class=""></path><path fill="#ff9e00" d="M140.42 336.91c-3.01 0-5.6-2.26-5.94-5.33l-25.62-230.63H71.93a5.986 5.986 0 0 1 0-11.97h42.29c3.05 0 5.61 2.3 5.94 5.33l26.22 235.95c.37 3.29-2 6.25-5.29 6.61-.22.03-.45.04-.67.04z" opacity="1" data-original="#5a5a5a" class=""></path><path fill="#ff9e00" d="M157.04 436.05c-31.4 0-56.94-25.55-56.94-56.94 0-31.4 25.54-56.94 56.94-56.94 31.39 0 56.94 25.54 56.94 56.94 0 31.39-25.55 56.94-56.94 56.94zm0-101.91c-24.8 0-44.97 20.17-44.97 44.97 0 24.79 20.17 44.96 44.97 44.96 24.79 0 44.96-20.17 44.96-44.96 0-24.8-20.17-44.97-44.96-44.97zM363.52 436.05c-31.4 0-56.94-25.55-56.94-56.94 0-31.4 25.54-56.94 56.94-56.94s56.94 25.54 56.94 56.94c0 31.39-25.54 56.94-56.94 56.94zm0-101.91c-24.8 0-44.97 20.17-44.97 44.97 0 24.79 20.17 44.96 44.97 44.96 24.79 0 44.97-20.17 44.97-44.96 0-24.8-20.18-44.97-44.97-44.97z" opacity="1" data-original="#cced00"></path><path fill="#ff9e00" d="M312.98 391.6h-105.4c-3.31 0-5.99-2.69-5.99-5.99 0-3.31 2.68-5.99 5.99-5.99h105.4c3.3 0 5.98 2.68 5.98 5.99 0 3.3-2.68 5.99-5.98 5.99zM363.52 402.96c-13.16 0-23.86-10.7-23.86-23.85 0-13.16 10.71-23.86 23.86-23.86s23.85 10.7 23.85 23.86c0 13.15-10.7 23.85-23.85 23.85zm0-35.74c-6.55 0-11.88 5.33-11.88 11.88 0 6.56 5.33 11.89 11.88 11.89s11.88-5.33 11.88-11.89c0-6.55-5.33-11.88-11.88-11.88zM157.04 402.96c-13.16 0-23.86-10.7-23.86-23.85 0-13.16 10.7-23.86 23.86-23.86 13.15 0 23.85 10.7 23.85 23.86 0 13.15-10.7 23.85-23.85 23.85zm0-35.74c-6.56 0-11.89 5.33-11.89 11.88 0 6.56 5.33 11.89 11.89 11.89 6.55 0 11.88-5.33 11.88-11.89 0-6.55-5.33-11.88-11.88-11.88z" opacity="1" data-original="#cced00"></path><path fill="#ff9e00" d="M396.87 205.49H125.83a5.986 5.986 0 0 1 0-11.97h271.04a5.986 5.986 0 0 1 0 11.97zM378.88 255.61H131.4a5.986 5.986 0 1 1 0-11.97h247.48a5.986 5.986 0 0 1 0 11.97z" opacity="1" data-original="#5a5a5a" class=""></path></g></svg>